<?xml version="1.0" encoding="UTF-8"?>
<svg width="50px" height="50px" viewBox="0 0 50 50" version="1.1" xmlns="http://www.w3.org/2000/svg" xmlns:xlink="http://www.w3.org/1999/xlink">
    <!-- Generator: Sketch 52.5 (67469) - http://www.bohemiancoding.com/sketch -->
    <title>gpu-sg</title>
    <desc>Created with Sketch.</desc>
    <g id="gpu-sg" stroke="none" stroke-width="1" fill="none" fill-rule="evenodd">
        <g id="GPU" transform="translate(15.000000, 5.000000)">
            <g id="Group" transform="translate(11.000000, 20.000000) rotate(-90.000000) translate(-11.000000, -20.000000) translate(-9.862069, 9.454545)">
                <path d="M13.6553996,9.45454545 C12.92333,9.45454545 12.3275862,10.0256717 12.3275862,10.7270549 C12.3275862,11.4288737 12.92333,12 13.6553996,12 C14.3870148,12 14.9827586,11.4288737 14.9827586,10.7270549 C14.9823042,10.0252361 14.3870148,9.45454545 13.6553996,9.45454545 Z M13.0966516,12.7392823 C13.0015689,14.0189694 13.55924,15.1598791 14.6237241,15.8181818 C15.6364655,15.6149086 16.5435103,15.1185128 17.2586207,14.4215126 C16.0627898,14.3405591 14.903223,13.7307395 14.1169111,12.7272727 C13.947089,12.770863 13.7719599,12.8002198 13.5888704,12.8002198 C13.4190483,12.8006646 13.2554176,12.7762006 13.0966516,12.7392823 Z M12.571518,8.90909091 C12.8600999,8.77222251 13.1801071,8.6881278 13.5222449,8.6881278 C13.6984038,8.6881278 13.8670383,8.71387107 14.0312467,8.752486 C14.0848026,7.50651153 13.4722299,6.44717582 12.2953291,5.84263793 L12.3086075,5.81818182 C11.0834621,6.09878351 10.0247383,6.79256475 9.29310345,7.73991722 C10.4885939,7.64509616 11.680986,8.06385342 12.571518,8.90909091 Z M14.9250943,9.02575605 C15.2973203,9.31591805 15.571592,9.71655842 15.6756411,10.1818182 C16.8393371,9.79660311 17.6434323,8.91027491 17.8275862,7.74754238 C16.8989803,6.48808918 15.3782957,5.65929311 13.6551724,5.63636364 C14.6377619,6.47933429 15.097929,7.69376235 14.9250943,9.02575605 Z M11.2644686,10.305428 C11.321081,9.89542122 11.4961847,9.52530004 11.7586207,9.224657 C10.8993403,8.45610875 9.7135508,8.17133416 8.61641028,8.49556545 C8.32237662,9.13459275 8.15517241,9.84138267 8.15517241,10.5863427 C8.15517241,11.2802663 8.29867839,11.9415952 8.55584813,12.5454545 C9.05131677,11.4535327 10.0246998,10.6390946 11.2644686,10.305428 Z M12.2085669,12.3399097 C11.8617068,12.0705238 11.6037516,11.7009817 11.4754309,11.2727273 C10.3271141,11.638384 9.52521936,12.5195003 9.29310345,13.680795 C10.1961657,14.9154802 11.6365982,15.7391792 13.2758621,15.8181818 C12.4100259,14.9193656 12.0128012,13.6592096 12.2085669,12.3399097 Z" id="Shape"></path>
                <rect id="Rectangle" x="2.0862069" y="2.90909091" width="1" height="4.18181818"></rect>
                <path d="M15.5838475,11.1626659 C15.4717137,11.6300125 15.184008,12.0320802 14.7931034,12.3185587 C15.5896552,13.1684309 16.7824724,13.5883775 17.9118514,13.4166567 C18.4564372,12.638716 18.7758621,11.7123387 18.7758621,10.7169404 C18.7758621,10.0787047 18.6413909,9.46998993 18.4041677,8.90909091 C17.9109579,10.0067732 16.8914789,10.827956 15.5838475,11.1626659 Z" id="Path"></path>
                <polygon id="Path" points="20.8266034 14.5454545 19.3448276 16.5454545 26.9310345 16.5454545 25.4488793 14.5454545"></polygon>
                <rect id="Rectangle" x="2.0862069" y="9.81818182" width="1" height="4.18181818"></rect>
                <polygon id="Path" points="25.0699483 2.90909091 26.5517241 0.909090909 18.9655172 0.909090909 20.4472931 2.90909091"></polygon>
                <path d="M34.1700543,10.799096 C34.0579206,11.2664563 33.7706617,11.6685359 33.3793103,11.9550228 C34.1767555,12.8049201 35.3704662,13.2244633 36.4985051,13.0531533 C37.0426441,12.2751896 37.362069,11.3487849 37.362069,10.3533573 C37.362069,9.71510278 37.2271511,9.10637011 36.9908214,8.54545455 C36.4967181,9.6431692 35.4776859,10.4643762 34.1700543,10.799096 Z M29.8502968,10.1237046 C29.9069024,9.7137152 30.0824235,9.34403855 30.3448276,9.04340822 C29.4847742,8.27446362 28.2986903,7.98927224 27.2029998,8.31391867 C26.9090021,8.95334778 26.7413793,9.65967893 26.7413793,10.4046074 C26.7413793,11.0985016 26.8848679,11.7598026 27.1415675,12.3636364 C27.6378533,11.2721896 28.6102402,10.4573571 29.8502968,10.1237046 Z M30.6039222,12.1558047 C30.2575382,11.8867739 30.0000493,11.5179901 29.8717428,11.0909091 C28.7366894,11.4592611 27.9199938,12.3540152 27.6896552,13.4987995 C28.5926182,14.7338366 30.0333302,15.5577704 31.6724138,15.6363636 C30.805797,14.7372912 30.4077402,13.4763443 30.6039222,12.1558047 Z M30.9686488,8.72727273 C31.2567613,8.59038533 31.5767386,8.50670805 31.9188445,8.50670805 C32.0945443,8.50670805 32.2636058,8.53288402 32.4277988,8.57107518 C32.4813496,7.32449864 31.8688342,6.26458673 30.6916007,5.66039404 L30.7048777,5.63636364 C29.4798468,5.91700427 28.4216642,6.61088184 27.6896552,7.55836584 C28.8850341,7.46353162 30.0782001,7.88191789 30.9686488,8.72727273 Z M31.4931885,12.5565729 C31.3981155,13.8369653 31.9566138,14.9786004 33.0214308,15.6363636 C34.0340681,15.4326749 34.9410198,14.9359058 35.6551724,14.2394506 C34.4594643,14.1585088 33.3000167,13.548777 32.5137854,12.5454545 C32.3435386,12.5885939 32.1688696,12.6179464 31.9857991,12.6179464 C31.8155521,12.6183911 31.6519382,12.5939307 31.4931885,12.5565729 Z M33.3217784,8.84424876 C33.6936078,9.13443738 33.9674729,9.53511449 34.0719684,10 C35.2353504,9.61516653 36.0395295,8.72917396 36.2241379,7.56633478 C35.2954352,6.30676607 33.7745919,5.47747702 32.0517241,5.45454545 C33.0348516,6.29717649 33.4950668,7.51213289 33.3217784,8.84424876 Z M32.0521786,9.27272727 C31.3199837,9.27272727 30.7241379,9.84385356 30.7241379,10.5452367 C30.7241379,11.2470555 31.3199837,11.8181818 32.0521786,11.8181818 C32.783919,11.8181818 33.3793103,11.2470555 33.3793103,10.5452367 C33.3793103,9.84385356 32.783919,9.27272727 32.0521786,9.27272727 Z" id="Shape"></path>
                <path d="M0,0.864422473 L2.70550453,0.864422473 L2.70550453,2.01021445 L1.12826632,2.01021445 L1.12826632,8.00239104 L2.70550453,8.00239104 L2.70550453,8.86119476 L1.12826632,8.86119476 L1.12826632,14.8529391 L2.70550453,14.8529391 L2.70550453,19.8181818 L3.60344828,19.8181818 L3.60344828,0 L0,0 L0,0.864422473 Z M2.02621007,7.13796856 L2.02621007,2.87463693 L2.70550453,2.87463693 L2.70550453,7.13796856 L2.02621007,7.13796856 Z M2.02621007,13.9885167 L2.02621007,9.72561724 L2.70550453,9.72561724 L2.70550453,13.9885167 L2.02621007,13.9885167 Z M39.5481223,0 L6.1587743,0 C4.95884812,0 3.98275862,1.14058747 3.98275862,2.54221013 L3.98275862,18.5486989 C3.98275862,19.9503216 4.95884812,21.0909091 6.1587743,21.0909091 L39.5481223,21.0909091 C40.7480484,21.0909091 41.7241379,19.9503216 41.7241379,18.5486989 L41.7241379,2.54221013 C41.7236894,1.14058747 40.7480484,0 39.5481223,0 Z M26.6575508,1.04833407 L25.1714366,3.34995155 L20.5350115,3.34995155 L19.0488972,1.04833407 L26.6575508,1.04833407 Z M19.1928884,20.0425751 L20.6790026,17.7404334 L25.3149792,17.7404334 L26.8010934,20.0425751 L19.1928884,20.0425751 Z M40.8265484,18.5486989 C40.8265484,19.3721655 40.2532752,20.0425751 39.5476738,20.0425751 L27.9252111,20.0425751 L25.7622039,16.6920993 L20.2322264,16.6920993 L18.0683221,20.0425751 L6.1587743,20.0425751 C5.45362142,20.0425751 4.87989969,19.3726895 4.87989969,18.5486989 L4.87989969,2.54221013 C4.87989969,1.71821955 5.45362142,1.04833407 6.1587743,1.04833407 L17.9252281,1.04833407 L20.0882353,4.39828562 L25.6182127,4.39828562 L27.7812199,1.04833407 L39.5476738,1.04833407 C40.2528265,1.04833407 40.8265484,1.71821955 40.8265484,2.54221013 L40.8265484,18.5486989 Z" id="Shape" fill="#9B9B9B" fill-rule="nonzero"></path>
                <path d="M13.6551724,4.54545455 C10.2039517,4.54545455 7.39655172,7.19649145 7.39655172,10.4549693 C7.39655172,13.7134472 10.2039517,16.3636364 13.6551724,16.3636364 C17.1063932,16.3636364 19.9137931,13.7130233 19.9137931,10.4549693 C19.9137931,7.19649145 17.1063932,4.54545455 13.6551724,4.54545455 Z M18.0330641,7.54366115 C17.8431504,8.72590322 17.0139057,9.62710316 15.8138129,10.0187818 C15.7065094,9.5457154 15.4241082,9.13792878 15.0397912,8.84332204 C15.2180317,7.48897875 14.743472,6.25417373 13.7301502,5.39705882 C15.5071674,5.42037302 17.0754143,6.26307553 18.0330641,7.54366115 Z M17.3802639,14.0860506 C16.6547309,14.7498696 15.7334475,15.2233599 14.7053097,15.4170797 C13.6246426,14.7901396 13.0584933,13.702426 13.1550215,12.4828812 C13.3162012,12.5180644 13.4823196,12.5413786 13.6542745,12.5413786 C13.8401474,12.5413786 14.0179389,12.5134016 14.1903428,12.4718599 C14.9890578,13.4281662 16.1662532,14.0093257 17.3802639,14.0860506 Z M13.6551724,11.6935894 C12.9318842,11.6935894 12.3432865,11.1378636 12.3432865,10.4549693 C12.3432865,9.77207513 12.9318842,9.21677318 13.6551724,9.21677318 C14.3780117,9.21677318 14.9666094,9.77249902 14.9666094,10.4549693 C14.9661604,11.1378636 14.3780117,11.6935894 13.6551724,11.6935894 Z M12.4241008,5.533129 L12.4106318,5.55729098 C13.604439,6.15455849 14.2258114,7.20115429 14.1714862,8.43214425 C14.0049189,8.39399375 13.8338619,8.36856005 13.6551724,8.36856005 C13.3081198,8.36856005 12.9830666,8.45121951 12.6907881,8.58686578 C11.7874635,7.7517934 10.5779424,7.33807225 9.3657275,7.43175296 C10.1074234,6.49579365 11.1813561,5.81035607 12.4241008,5.533129 Z M8.76590561,8.38848311 C9.88832682,8.06801878 11.1009907,8.3494848 11.98052,9.10910395 C11.7120368,9.40625407 11.5328984,9.77165124 11.4749814,10.1773184 C10.2066455,10.5071084 9.21083337,11.3125081 8.70394796,12.3917438 C8.44085243,11.7949002 8.29403973,11.1412547 8.29403973,10.4553932 C8.29403973,9.7186644 8.46554568,9.02008609 8.76590561,8.38848311 Z M9.30736159,13.4044281 C9.5453149,12.2641516 10.3673762,11.3989827 11.5445716,11.0399439 C11.6756704,11.4600235 11.9401128,11.8233012 12.2961448,12.0878114 C12.0954559,13.3836572 12.5026703,14.6210056 13.390281,15.5035542 C11.709792,15.4255576 10.2331346,14.6167667 9.30736159,13.4044281 Z M18.1475511,13.2073171 C17.0125588,13.3823855 15.8138129,12.954252 15.0133021,12.0878114 C15.4061495,11.795748 15.6952852,11.3858419 15.8079763,10.9093844 C17.1221071,10.5677253 18.1462042,9.73095735 18.6423143,8.61187556 C18.8802677,9.1837094 19.0158561,9.80429111 19.0158561,10.4549693 C19.0158561,11.4697731 18.6948437,12.4142103 18.1475511,13.2073171 Z M31.8622935,4.36363636 C28.4109489,4.36363636 25.6034483,7.01448311 25.6034483,10.2727273 C25.6034483,13.5313953 28.411398,16.1818182 31.8622935,16.1818182 C35.3131891,16.1818182 38.1206897,13.5309714 38.1206897,10.2727273 C38.1206897,7.01448311 35.3131891,4.36363636 31.8622935,4.36363636 Z M36.2403423,7.36205176 C36.0495237,8.54420904 35.2206982,9.44534435 34.0210113,9.83614715 C33.913704,9.36311469 33.6312927,8.95578118 33.2474109,8.66119556 C33.4261068,7.30694942 32.95153,6.07180911 31.9377228,5.21517956 C33.714355,5.23849209 35.282658,6.08198185 36.2403423,7.36205176 Z M35.5884166,13.9043958 C34.8633065,14.5677433 33.942439,15.0416235 32.9142643,15.2357533 C31.8331094,14.6088581 31.2660419,13.5207987 31.3625736,12.3004936 C31.523759,12.3360982 31.6898833,12.3594108 31.8622935,12.3594108 C32.048173,12.3594108 32.225971,12.3314357 32.398381,12.2903209 C33.1971246,13.2461347 34.3743622,13.8272525 35.5884166,13.9043958 Z M31.8622935,11.5112585 C31.1389792,11.5112585 30.5503605,10.9555725 30.5503605,10.2727273 C30.5503605,9.59030589 31.1389792,9.03461993 31.8622935,9.03461993 C32.5851587,9.03461993 33.1733285,9.59030589 33.1733285,10.2727273 C33.1733285,10.9559964 32.5851587,11.5112585 31.8622935,11.5112585 Z M30.6311777,5.35166384 L30.6177082,5.37540022 C31.8120072,5.97262489 32.4334019,7.01914562 32.3790747,8.25047115 C32.2125015,8.21274722 32.0409893,8.18689151 31.8627424,8.18689151 C31.5156774,8.18689151 31.1910616,8.26954504 30.8987726,8.40475771 C29.9949665,7.56974522 28.7849531,7.15605376 27.5731437,7.24972775 C28.3148662,6.31383558 29.3883884,5.62887102 30.6311777,5.35166384 Z M26.9733003,8.20638927 C28.0944148,7.8851002 29.3080201,8.16739376 30.18803,8.92738227 C29.9195371,9.22451109 29.7399433,9.58988204 29.6820243,9.99509622 C28.4131938,10.3248626 27.4177949,11.1297807 26.9104425,12.2093628 C26.6477864,11.612562 26.5009684,10.9589634 26.5009684,10.2731511 C26.5014175,9.53605127 26.6724806,8.83794693 26.9733003,8.20638927 Z M27.5147757,13.223246 C27.7509415,12.099582 28.5887468,11.2209115 29.7520658,10.8597792 C29.8836184,11.2789809 30.1476213,11.6409609 30.5027681,11.9050283 C30.3020719,13.2016289 30.7097499,14.4393124 31.5978416,15.3217977 C29.9177412,15.2442306 28.4405819,14.4359215 27.5147757,13.223246 Z M36.3552822,13.0248776 C35.2215962,13.1995096 34.0219093,12.7718306 33.2204719,11.9054522 C33.6137824,11.6134098 33.9024794,11.2035331 34.0151746,10.7271097 C35.3293524,10.3854751 36.3534864,9.5487672 36.8500633,8.42976571 C37.0875761,9.00155851 37.2231695,9.62209571 37.2231695,10.2727273 C37.2227204,11.2878821 36.9021455,12.2318276 36.3552822,13.0248776 Z" id="Shape" fill="#9B9B9B" fill-rule="nonzero"></path>
            </g>
        </g>
    </g>
</svg>