<?xml version="1.0" encoding="UTF-8"?>
<svg width="50px" height="50px" viewBox="0 0 50 50" version="1.1" xmlns="http://www.w3.org/2000/svg" xmlns:xlink="http://www.w3.org/1999/xlink">
    <!-- Generator: Sketch 52.5 (67469) - http://www.bohemiancoding.com/sketch -->
    <title>processor-sg</title>
    <desc>Created with Sketch.</desc>
    <g id="processor-sg" stroke="none" stroke-width="1" fill="none" fill-rule="evenodd">
        <g id="CPU" transform="translate(8.000000, 8.000000)">
            <path d="M5.43956044,0 L7.07142857,0 L7.07142857,2.91712707 L5.43956044,2.91712707 L5.43956044,0 Z M9.42857143,0 L11.0604396,0 L11.0604396,2.91712707 L9.42857143,2.91712707 L9.42857143,0 Z M13.4175824,0 L15.0494505,0 L15.0494505,2.91712707 L13.4175824,2.91712707 L13.4175824,0 Z M17.4065934,0 L19.0384615,0 L19.0384615,2.91712707 L17.4065934,2.91712707 L17.4065934,0 Z M21.2142857,0 L22.8461538,0 L22.8461538,2.91712707 L21.2142857,2.91712707 L21.2142857,0 Z M25.2032967,0 L26.8351648,0 L26.8351648,2.91712707 L25.2032967,2.91712707 L25.2032967,0 Z M5.43956044,30.0828729 L7.07142857,30.0828729 L7.07142857,33 L5.43956044,33 L5.43956044,30.0828729 Z M9.42857143,30.0828729 L11.0604396,30.0828729 L11.0604396,33 L9.42857143,33 L9.42857143,30.0828729 Z M13.4175824,30.0828729 L15.0494505,30.0828729 L15.0494505,33 L13.4175824,33 L13.4175824,30.0828729 Z M17.4065934,30.0828729 L19.0384615,30.0828729 L19.0384615,33 L17.4065934,33 L17.4065934,30.0828729 Z M21.2142857,30.0828729 L22.8461538,30.0828729 L22.8461538,33 L21.2142857,33 L21.2142857,30.0828729 Z M25.2032967,30.0828729 L26.8351648,30.0828729 L26.8351648,33 L25.2032967,33 L25.2032967,30.0828729 Z M29.9175824,5.46961326 L33,5.46961326 L33,7.11049724 L29.9175824,7.11049724 L29.9175824,5.46961326 Z M29.9175824,9.48066298 L33,9.48066298 L33,11.121547 L29.9175824,11.121547 L29.9175824,9.48066298 Z M29.9175824,13.3093923 L33,13.3093923 L33,14.9502762 L29.9175824,14.9502762 L29.9175824,13.3093923 Z M29.9175824,17.320442 L33,17.320442 L33,18.961326 L29.9175824,18.961326 L29.9175824,17.320442 Z M29.9175824,21.3314917 L33,21.3314917 L33,22.9723757 L29.9175824,22.9723757 L29.9175824,21.3314917 Z M29.9175824,25.3425414 L33,25.3425414 L33,26.9834254 L29.9175824,26.9834254 L29.9175824,25.3425414 Z M0,5.46961326 L3.08241758,5.46961326 L3.08241758,7.11049724 L0,7.11049724 L0,5.46961326 Z M0,9.48066298 L3.08241758,9.48066298 L3.08241758,11.121547 L0,11.121547 L0,9.48066298 Z M0,13.3093923 L3.08241758,13.3093923 L3.08241758,14.9502762 L0,14.9502762 L0,13.3093923 Z M0,17.320442 L3.08241758,17.320442 L3.08241758,18.961326 L0,18.961326 L0,17.320442 Z M0,21.3314917 L3.08241758,21.3314917 L3.08241758,22.9723757 L0,22.9723757 L0,21.3314917 Z M0,25.3425414 L3.08241758,25.3425414 L3.08241758,26.9834254 L0,26.9834254 L0,25.3425414 Z" id="Shape" fill="#9B9B9B" fill-rule="nonzero"></path>
            <rect id="Rectangle" stroke="#9B9B9B" stroke-width="0.819310345" x="4.55172414" y="4.55172414" width="23.8965517" height="23.8965517" rx="2.73103448"></rect>
            <rect id="Rectangle" stroke="#9B9B9B" stroke-width="0.819310345" x="7.96551724" y="7.96551724" width="17.0689655" height="17.0689655"></rect>
            <circle id="Oval" fill="#9B9B9B" cx="10.8103448" cy="11.9482759" r="1"></circle>
            <circle id="Oval" fill="#9B9B9B" cx="22.1896552" cy="23.3275862" r="1"></circle>
        </g>
    </g>
</svg>